 http://www.imdb.com/title/tt0452608/

Release Date: 22 August 2008 (USA)

Genre: Action | Sci-Fi | Thriller

Plot: Ex-con Jensen Ames is forced by the warden of a notorious prison to compete in our post-industrial world's most popular sport: a car race in which inmates must brutalize and kill one another on the road to victory.

Cast:
Jason Statham ... Jensen Ames
Joan Allen ... Hennessey
Ian McShane ... Coach
Tyrese Gibson ... Machine Gun Joe
Natalie Martinez ... Case
Max Ryan ... Pachenko
Jason Clarke ... Ulrich
Frederick Koehler ... Lists (as Fred Koehler)
Jacob Vargas ... Gunner
Justin Mader ... Travis Colt
Robert LaSardo ... Grimm
Robin Shou ... 14K
Benz Antoine ... Joe's Navigator
Danny Blanco Hall ... Joe's Navigator
Christian Paul ... Joe's Navigator

File Name

Death Race UNRATED 816p BRRip H264.mp4

File Size
Format : MPEG-4
Format profile : Base Media
Codec ID : isom
File size : 3.70 GiB
Duration : 1h 50mn
Overall bit rate : 4 789 Kbps

Video
ID : 1
Format : AVC
Format/Info : Advanced Video Codec
Format profile : High@L4.1
Format settings, CABAC : Yes
Format settings, ReFrames : 3 frames
Codec ID : avc1
Codec ID/Info : Advanced Video Coding
Duration : 1h 50mn
Bit rate mode : Variable
Bit rate : 4 149 Kbps
Maximum bit rate : 21.3 Mbps
Width : 1 920 pixels
Height : 816 pixels
Display aspect ratio : 2.35:1
Frame rate mode : Constant
Frame rate : 23.976 fps
Resolution : 24 bits
Colorimetry : 4:2:0
Scan type : Progressive
Bits/(Pixel*Frame) : 0.110
Stream size : 3.20 GiB (87%)

Audio #1
ID : 2
Format : AAC
Format/Info : Advanced Audio Codec
Format version : Version 4
Format profile : LC
Format settings, SBR : No
Codec ID : 40
Duration : 1h 50mn
Bit rate mode : Variable
Bit rate : 192 Kbps
Maximum bit rate : 199 Kbps
Channel(s) : 2 channels
Channel positions : L R
Sampling rate : 48.0 KHz
Resolution : 16 bits
Stream size : 151 MiB (4%)

Audio #2
ID : 3
Format : AAC
Format/Info : Advanced Audio Codec
Format version : Version 4
Format profile : LC
Format settings, SBR : No
Codec ID : 40
Duration : 1h 50mn
Bit rate mode : Variable
Bit rate : 448 Kbps
Maximum bit rate : 461 Kbps
Channel(s) : 6 channels
Channel positions : Front: L C R, Rear: L R, LFE
Sampling rate : 48.0 KHz
Resolution : 16 bits
Stream size : 354 MiB (9%)

English SRT : External

Language : English